<?xml version="1.0" encoding="UTF-8"?><svg id="Layer_1" xmlns="http://www.w3.org/2000/svg" viewBox="0 0 1366 768"><path d="M1145.84,337.11c-36.28-26.81-80.07,25.08-138.07,0-94.24-40.74-64.3-214.74-138.07-237.43-54.71-16.83-78.9,76.49-180.95,92.05-121.27,18.49-196.62-96.59-283.46-53.34-36.02,17.93-38.56,45.45-84.72,60.67-28.53,9.4-56.86,8.56-81.83,3.61-38.23-7.57-77.89,6.03-102.53,36.23-10.09,12.36-16.29,25.72-15.43,39.65,2.04,32.84,41.91,45.47,88.91,81.59,115.89,89.05,78.94,170.09,172.58,223.84,70.09,40.23,93.69-3.51,195.6,47.07,52.84,26.23,78.02,53.64,117.15,46.02,41.85-8.15,44.48-45.64,81.59-67.99,87.34-52.59,194.12,82.04,288.69,47.07,105.91-39.16,144.42-271.82,80.54-319.02Z" style="fill:#fff; stroke:#000; stroke-miterlimit:10;"/></svg>